/* XPM */
static char *c0d71e868df946718ac781087be797c8[] = {
/* columns rows colors chars-per-pixel */
"56 128 229 2 ",
"   c #030C16",
".  c #040C1D",
"X  c #0A0D1C",
"o  c #030818",
"O  c #04121D",
"+  c #0A141D",
"@  c #07191D",
"#  c #0B1B1E",
"$  c #0B1315",
"%  c #11141D",
"&  c #131B1D",
"*  c #191C1B",
"=  c #100E1B",
"-  c #14241F",
";  c #0F221F",
":  c #2F261D",
">  c #050D22",
",  c #090E24",
"<  c #0A0F2A",
"1  c #051422",
"2  c #0A1424",
"3  c #071922",
"4  c #0C1B24",
"5  c #0C132A",
"6  c #0C1C2B",
"7  c #05182B",
"8  c #111523",
"9  c #121D24",
"0  c #1B1C23",
"q  c #11162B",
"w  c #121D2C",
"e  c #1A1C2A",
"r  c #0D1D31",
"t  c #141E30",
"y  c #161B32",
"u  c #241E25",
"i  c #0E2124",
"p  c #0D212C",
"a  c #132225",
"s  c #1B2224",
"d  c #14222C",
"f  c #1A242D",
"g  c #1D2A2D",
"h  c #192928",
"j  c #0E2132",
"k  c #142332",
"l  c #1B2533",
"z  c #1C2A33",
"x  c #1D2A3A",
"c  c #182738",
"v  c #1D3037",
"b  c #242124",
"n  c #22252C",
"m  c #2A242A",
"M  c #232B2B",
"N  c #2B2C2B",
"B  c #272826",
"V  c #352B2C",
"C  c #28332D",
"Z  c #38342D",
"A  c #212633",
"S  c #222C34",
"D  c #2B2D33",
"F  c #212639",
"G  c #232C3B",
"H  c #292E3B",
"J  c #292631",
"K  c #342C32",
"L  c #243235",
"P  c #2B3335",
"I  c #2D3A35",
"U  c #25323B",
"Y  c #2B353C",
"T  c #2D3A3C",
"R  c #27393B",
"E  c #3B3333",
"W  c #333B35",
"Q  c #323C3C",
"!  c #3B3B3B",
"~  c #353737",
"^  c #43382E",
"/  c #453B37",
"(  c #35433C",
")  c #3B443E",
"_  c #3A453A",
"`  c #2F4038",
"'  c #44453B",
"]  c #484537",
"[  c #51453D",
"{  c #1E2E43",
"}  c #262E40",
"|  c #263342",
" . c #2C3443",
".. c #2E3A41",
"X. c #2B3648",
"o. c #313742",
"O. c #333C43",
"+. c #333B4A",
"@. c #373B48",
"#. c #313E52",
"$. c #344242",
"%. c #3B4444",
"&. c #3C4B45",
"*. c #3C424C",
"=. c #3D4A4C",
"-. c #334A46",
";. c #334355",
":. c #3E4251",
">. c #354E4A",
",. c #4B4544",
"<. c #4C4B43",
"1. c #41454C",
"2. c #434B4C",
"3. c #4B4D4B",
"4. c #424744",
"5. c #544C42",
"6. c #574D47",
"7. c #47524C",
"8. c #5C5344",
"9. c #5C534A",
"0. c #56564A",
"q. c #444B54",
"w. c #474A55",
"e. c #4A5557",
"r. c #53565D",
"t. c #525A5C",
"y. c #575954",
"u. c #65594B",
"i. c #645B51",
"p. c #5B625C",
"a. c #546159",
"s. c #4C6257",
"d. c #6A614D",
"f. c #6B6355",
"g. c #6A655A",
"h. c #746A59",
"j. c #776E56",
"k. c #5A5D64",
"l. c #565B64",
"z. c #5C6264",
"x. c #5C6469",
"c. c #576464",
"v. c #61646B",
"b. c #656B6E",
"n. c #656966",
"m. c #68756D",
"M. c #797465",
"N. c #666D73",
"B. c #6A6D75",
"V. c #697475",
"C. c #75787A",
"Z. c #736E61",
"A. c #827A67",
"S. c #75837D",
"D. c #68867C",
"F. c #777B83",
"G. c #837E82",
"H. c #7E8285",
"J. c #7A8586",
"K. c #78938C",
"L. c #828585",
"P. c #82858C",
"I. c #858B8B",
"U. c #8B8D8C",
"Y. c #8A8E91",
"T. c #848991",
"R. c #8C9495",
"E. c #95989A",
"W. c #90928F",
"Q. c #8FA299",
"!. c #9A9DA3",
"~. c #9CA4A7",
"^. c #A5A8AA",
"/. c #A8ABB2",
"(. c #ABB2B4",
"). c #B2B6BA",
"_. c #B4BABD",
"`. c #BBBCBE",
"'. c #B3B5B6",
"]. c #A6B2AC",
"[. c #B7C3BC",
"{. c #BBBDC1",
"}. c #BCBFC8",
"|. c #BBC4C5",
" X c None",
".X c None",
"XX c None",
"oX c None",
"OX c None",
"+X c None",
"@X c None",
"#X c None",
"$X c None",
"%X c None",
"&X c None",
"*X c None",
"=X c None",
"-X c None",
";X c None",
":X c None",
">X c None",
",X c None",
"<X c None",
"1X c None",
"2X c None",
"3X c None",
"4X c None",
"5X c None",
"6X c None",
"7X c None",
"8X c None",
"9X c None",
"0X c None",
"qX c None",
"wX c None",
"eX c None",
"rX c None",
"tX c None",
"yX c None",
"uX c None",
"iX c None",
"pX c None",
"aX c None",
"sX c None",
"dX c None",
"fX c None",
"gX c None",
"hX c None",
"jX c None",
/* pixels */
"wXwXwXwXwXwXwXwXwXdXwXwXwXwXwXuXuX8X/.F.k.w.4.4.e.k.G.(.%XeXtXeXwXdXdXwXdXwXdXwXwXwXwXwXwXwXwXwXwXwXwXwXwXwXwXwX",
"wXwXwXwXwXwXwXwXwXwXwXdXdXwXwXdX9X/.T.B.r.%.W ~ ! 4.w.C./.XX4XiXtXwXdXwXdXwXdXwXwXwXwXwXwXwXwXwXwXwXwXwXwXwXwXwX",
"wXwXwXwXwXwXwXwXdXwXwXwXwXwXwXdXoXB.v.r.4.! ' <.0.3.,.r.C.!. X4XdXtXdXwXdXwXdXwXwXwXwXwXwXwXwXwXwXwXwXwXwXwXwXwX",
"wXwXwXwXwXwXwXwXwXwXwXwXwXwXdXeXE.r.3.! ! <.f.Z.M.Z.g.0.k.L.!.XXpXtXdXwXwXdXwXwXwXwXwXwXwXwXwXwXwXwXwXwXwXwXwXwX",
"wXwXwXwXwXwXwXwXwXwXdXwXdXdXwX=XB.3.' / [ 8.f.j.A.A.A.y.3.z.Y.(.eXwXdXwXwXdXwXwXwXwXwXwXwXwXwXwXwXwXwXwXwXwXwXwX",
"wXwXwXwXwXwXwXwXdXdXdXwXwXdXwXXXy.3.6.i.i.d.d.f.j.A.A.g.<.y.P.!.4XwXdXwXwXwXwXwXwXwXwXwXwXwXwXwXwXwXwXwXwXwXwXwX",
"wXwXwXwXwXwXwXwXwXwXwXwXwXdXdX Xy.,.9.u.u.u.u.d.h.M.A.Z.5.3.m.Y.,XwXwXwXtXtXtXaXwXwXwXwXwXwXwXwXwXwXwXwXwXwXwXwX",
"wXwXwXwXwXwXwXwXwXdXwXdXdXwXwX`.y.<.9.9.u.u.u.u.i.f.f.f.u.' g.H.=XwXwXwXaXtXtXaXwXwXwXwXwXwXwXwXwXwXwXwXwXwXwXwX",
"wXwXwXwXwXwXwXwXwXwXdXwXdXwXwX'.3.,.,.,.9.u.i.8./ ^ ^ / u.0.m.L. XwXwXwXwXwXaXwXtXtXwXwXwXwXwXwXwXwXwXwXwXwXwXwX",
"wXwXwXwXwXwXwXwXdXwXdXdXwXwXdX'.y.,.,./ [ 6.u.5.Z : : 8.i.f.g.H.XXdXwXwXdXwXtXdXtXtXwXwXwXwXwXwXwXwXwXwXwXwXwXwX",
"wXwXwXwXwXwXwXwXdXdXwXwXdXwXwXXXn.4.! / ^ ^ 8.f.5.^ ] u.d.f.y.C.1XuXwXsXwXdXdXwXtXtXwXwXwXwXwXwXwXwXwXwXwXwXwXwX",
"wXwXwXwXwXwXwXwXwXdXwXwXwXwXdXeXW.4.! / ^ ^ 5.M.h.8.8.8.u.u.y.U.4XsXsXuXwXwXeXdXtXtXwXwXwXwXwXwXwXwXwXwXwXwXwXwX",
"wXwXwXwXwXwXwXwXwXwXdXdXwXdXwXwX;XL.,.E / / [ h.M.f.[ u.8.9.y.E.4XeXwXsXwXsXdXwXwXwXwXwXwXwXwXwXwXwXwXwXwXwXwXwX",
"wXwXwXwXwXwXwXwXdXwXdXwXdXwXwXdXsX,XG.E E ^ / 8.9.5.^ [ 5.6.0.H. XsXdXwXdXwXdXwXwXwXwXwXwXwXwXwXwXwXwXwXwXwXwXwX",
"wXwXwXwXwXwXwXwXwXdXwXwXwXwXdXeX,X`.C./ K E V Z E ^ ^ Z / ! ) e.S.|.1XeXdXeXdXwXwXwXwXwXwXwXwXwXwXwXwXwXwXwXwXwX",
"tXwXwXwXwXwXwXwXdXwXwXwXsXsX9X).V.2.~ K V K K m m V E Z E N P I 2.z.I.'.;X4X4XeXpXpXwXwXwXuXwXwXwXwXuXuXwXwXtXtX",
"tXtXwXuXuXuXuXwXdXwXpXdX9X<X].=.z d 9 s n m m m b m K K D M M Q P I %.e.b.V.C.#XsXsXpXuXuXuXeXsXwXuXuXuXwXwXtXaX",
"tXtXwXuXuXuXuXwXwXwXdXsX|.V.-.d 4 4 4 4 0 b m m m m m D D n n ~ P P Q $.$.I ( R.+X<X0XuXuXuXsXpXdXwXuXuXsXwXtXtX",
"tXtXwXuXuXuXwXwXaXdXwXsX_...z d 4 4 @ @ 2 8 0 b b b b b N B M P P P P %.) _ ( 7.V.R.|.5XuXuXwXaXwXwXaXdXuXwXuXuX",
"tXwXwXwXwXwXwXwXwXpXpX9XE.U z d 4 4 3 + 2 + % 0 * * b B N M M I P P N %.) ) %.` ( e.m.Q.|.7XuXwXdXtXaXtXwXsXdXuX",
"wXwXwXwXwXtXtXwXdXpX9X(.e.U z d 9 9 4 O + 3 + % * * N ~ N & & L I L M W ~ ) 4.4.2.( ( &.m.~.oX6XwXtXtXtXwXwXuXwX",
"uXuXwXwXtXtXtXwXpX8X~.q.Y G z f f d 9 4 2 3 + + & s M s 9 & # a g I Q Q M W 2.3.7.2.&.( ( s.S.[.sXdXwXdXaXwXwXuX",
"uXuXwXwXtXtXtXwX9X^.w.Y Y Y G f d 9 4 9 w 4 3 4 9 9 d f d 4 3 3 f %.Q Q M M %.7.7.7.2.&.&.&.s.Q.0XsXsXwXaXaXwXwX",
"uXuXwXwXtXtXtXpX:Xt.o.Y Y | z w 4 @ 3 9 d d 2 3 w d l k w w w w A @.%.%.M s I &.=.( I $.&.( -.J.|.<XsXsXaXaXtXaX",
"sXeXiXiXtXeXgXpX_.*.z z S z z z d 4 @ 9 g S f O 3 t x { c 6 2 w g G Q %.O.h M $.$.M h L T R &.e.V.~.9XeXaXaXaXwX",
"uXdXeXiXtXaXpX2XN.G d w l k z  .x w 4 O.=.%.Y 4 6 6 j { c 6 O 2 @ 9 A O.*.A g O.O.h a a d T =.T >.K.<XsXaXaXtXwX",
"wXwXwXdXpXpX9X).q.Y k 6 k w k | z d 9 O.%.=.$.f p j j r 6 6 9 @ O O 3 d G A J @.O.a d z 9 f R T >.D.].0XsXdXeXdX",
"dXwXdXwXdXpX&Xr. . .x w w w k | G z f g h T ..z 6 7 7 7 6 4 R L f 3 O 4 g n J O.o.d d U d d z $.-.>.S.;XeXdXaXtX",
"wXiXwXwXsX9X/.@.H  .} t 6 k k | | U U g 9 S ..U k j r p 6 3 T S z 3 @ f U A A O.O.a w G w k f R -.&.V.].7XeXeXaX",
"tXwXdXpXpX*Xr. . .} c 6 w k d | G G U S 9 9 S d p k j 6 6 4 U # 4 @ O h U S z ..T 9 9 x 6 6 d U &.$.a.S.#XuXdXwX",
"tXeXwXwX9X).*. .G l t 6 t 6 d | k G U S w d z 6 6 j k j 6 6 z 4 4 4 4 a z S f S S 4 3 k w k f L I ) ( c.[.uXsXuX",
"tXtXtXdX%Xr.o.G l w 5 1 6 6 k | k G G S f S d 6 r k c k 6 3 k z f 4 4 4 4 z g g h # 4 k 6 k d g P ) W a.Q.7X0XuX",
"dXwXaXpX+X1.G l k r 5 > 2 6 d U d S S S f Y z 6 k c { c k 4 d z g # ; i 3 z d d a O 3 k w w d f P ) ) ) m.-X0XuX",
"wXsXgXeX}.1.S k 6 6 5 > > > 2 l w z f f g O.G w { ;.;.;.| z z z z 4 ; i 4 x d a 4 O O 6 w w d d L %._ I m.;XuXuX",
"sXwXpX%Xk.@.G k 6 6 5 > > . . 4 6 x d 9 d $.U z | #.c ;. .4 k l z 4 # # 6 c d 9 4 O . . 1 w f S T %.%.W n.;XuXuX",
"sXdXsX.X1.o.G k 6 2 2 > . > 1 1 6 x d a g $.z d x X.| +.U z k t k 4 4 @ 3 c w 3 4 O . . O d U O.O.%.$.I t.OXeXsX",
"eXdX8X^.+. .G 2 3 1 2 > > > . . 3 k 4 d L $.a 3 7 6 6 j 6 3 1 6 6 4 4 # 4 z 6 O 3 . . . . 4 f S L P R I q.!.eXpX",
"wXwX&Xe.} } G 6 2 O . > > > > 1 1 6 4 d L L 4 4 7 j 6 6 6 O 1 3 6 4 4 @ 3 f 4 . . . . . . . O 2 9 A Y U ..N.+XeX",
"iX2X!.+.G } G | | z 5 , > > . 1 1 2 3 4 z d 1 6 k j k j p 3 O 6 6 4 4 @ @ 4 @ . . . > . . . O @ @ 9 z U U O.F.2X",
"iX_.*. .X.+.X.*.*.o.F w 5 > > 1 . > 1 2 f 9 4 z x G G z d 4 O 4 4 3 4 @ O O O . , > 5 2 + 9 z S z 9 d k k z N.2X",
"wX).@.X.X.#.#...z o.X.F y 2 1 O . . . O s h 2.n.b.v.n.t.Q h $ # 4 9 a a a 4 O O t z z f 9 L U Y z U x G l z x.:X",
"tX).o.G X. . .G G +.+. .G t 2 O O     $ * 4.C.L.L.R.U.S.p.( & & d U T T L g 9 f S z S R L Y S S U U | l k z x.2X",
"eX`.@.S F G l G  .+. .G z F z 9 % $ $ $ * 0.C.L.I.E.E.I.m.y.%.h s s G O.=.$.z U G z S o.O.O.L f z x c x f G N.+X",
"aX1XR.o.F G F G X.X.G k l +.@.P D N Z ! W y.n.L.R.E.E.I.n.y.%.M * B n D %.%.R U z d f S Y Y z d w k k d S q.C.=X",
"aXpX$Xl.G F F F } G t t x +.o.! i.f.<.' ' 0.p.b.I.R.Y.C.a.y.7.N B y.1.D Q Q R U S w w k z z k k k k d d Y V.XXwX",
"aXpX8X~.+.G G F G l 6 w z  .D ! g.h.9.' _ ' y.z.b.b.m.p.0.' ' ' y.M.3.n n P z G G l d w d k k k t t z U x.{.pXaX",
"aXpXpX3X^.w.F l l t 6 w l ..J ~ i.[ Z Z W _ ) y.p.p.y.y.] ] d.f.g.0.@.e n Y f z z z d 3 4 d k k k k U c.`.sXdXtX",
"wXdXsXsX$X1.H F k 5 3 w l Y n K 9.9.Z Z N I I _ 7.7.[ 8.d.h.h.] / ! J 9 f Y l f z z p 4 4 6 6 d w l U F.4XuXwXtX",
"iXwXpXpX1X'.~.P.O.w 5 k z G 9 N / 6.9.~ s C Q &.&.4.' ] ] / u.i.u./ n 8 l U d 6 i p d 4 2 4 4 3 h l.~.oXwXwXwXwX",
"wXwXdXaXdXeXdX8X~.q.+.l d w 9 n m V m * s C g I C _ <.b : : [ 5.,.N 0 5 k c 3 6 3 4 6 6 q 2 3 a %.W.9XwXwXwXdXwX",
"dXwXdXwXwXwXdXsX8X|.~.G q q + 8 0 u 0 0 9 a a h - C h W <.,./ m u u 9 5 6 k 6 3 3 3 4 5 5 3 3 4 %.^.sXwXwXwXwXdX",
"wXwXpXdXdXiXeXuXsXsX@X .5 > . X X X 0 9 + 9 a i ; - - - 0 m u u 0 = . 2 6 6 1 2 4 3 5 3 5 2 1 # 2.`.wXuXdXdXwXwX",
"pXsXpXpXwXtXeXuXsXsX|. .w , > > . X X 8 2 4 4 a ; i i & * % 0 X X o . > 5 5 3 1 . . . . . . O # %.'.gXwXwXwXdXwX",
"pXdXpXwXtXiXiXiXeXsX@XH q 5 5 > . . . X . O O @ # # O 3 X X X X . . . > > > > . . . . . . @ 3 4 Q R.wXwXdXwXwXdX",
"pXwXwXwXtXeXyXiXdXpX@X .w 5 5 > > . . .   . .   O O O   . , . . . . . > > > .   . . . . @ 4 3 4 Q L.4XsXwXwXdXdX",
"dXwXdXwXtXyXyXtXtXgX.XY w q q 5 2 2 . . . . . O O . O . O . . . 2 3 1 . . > > . .   . 3 3 3 3 a t.`.uXsXwXdXdXwX",
"uXuXwXwXtXtXtXtXaXhX{.D 9 w q 4 4 4 O . O 1 d l k z d z k w 2 O O 4 4 4 . 1 O . . 3 O 3 3 4 i a c.%XuXsXdXeXdXwX",
"uXuXwXwXtXtXtXaXaXdX=XR.N.O.S 4 d d @ 3 3 3 x | l x l U G z p 4 4 4 4 4 O 3 O 1 O 3 f p 4 f i a z.XXwXuXwXwXwXwX",
"wXwXwXwXwXwXaXaXhXwXdXpX).2.z 9 g g 4 f d 3 l l l F l G z d 4 4 4 4 4 3 O 3 4 4 4 w z d i d 4 d c.OXwXwXwXaXwXwX",
"wXwXwXwXwXwXaXaXpXpXdXeX_.q.R S z g 9 z d O 2 > > , > . . . O 4 4 4 4 4 O 3 6 4 4 4 v f 4 a d O.n.=XwXwXtXwXwXwX",
"wXwXwXwXwXwXpXpXdXwXwXsX X%.A Y R R G G w . . . > 2 2 .   . O 4 6 4 9 4 O 3 6 p 6 6 z d # @ # O.Y.6XwXwXdXwXdXwX",
"pXwXwXwXwXwXpXpXaXwXwXeX|.P g Y ..O.Y S 2 . . . > 2 2 . . . . 4 6 p w 9 3 3 k k 6 6 i d # @ L q.oXuXwXwXaXtXwXwX",
"aXaXwXwXuXuXpXpXpXdXwXuX|.R z l U U U z 1 . . . . 1 2 . . . 1 6 6 p d S z 6 k j 6 3 @ # # a 2.E.9XwXtXwXtXtXwXwX",
"aXaXwXwXuXuXuXpXwXdXsXsX{.P w w d d k d . . . . . 1 3 . .   . 6 k d d U U 6 p j 6 4 4 4 & e.(.9XdXwXdXdXaXwXdXwX",
"pXpXwXwXwXwXwXwXwXwXwXpX.Xz 2 r k k k 2 . . . . > , 1 > . . . 1 p z d U z 6 p p 3 4 d h P B.3XsXwXwXwXwXwXwXwXwX",
"pXwXwXwXwXwXwXwXdXwXdXsX/.F > < r 6 6 1 . . . . . > > . . . . O d d i v z 4 p i 4 4 ..l.L.`.8XpXwXwXwXwXwXwXwXwX",
"pXwXwXwXwXwXwXwXwXwXsX:Xk.5 , 5 1 1 1 . . . . . . . . . . . . . 4 d f U f 3 i p 3 d N.+X4XdXpXwXwXwXwXwXwXwXwXwX",
"pXwXwXwXwXwXwXwXwXdXdX$X@.5 5 < > > > . . . . . . . . . . . . . O d f G z d p 4 O a C.8XpXdXwXwXwXwXwXwXwXwXwXwX",
"wXwXwXwXwXwXwXpXdXwXwX%X@.8 5 < 1 > > . . . . . . . . . . . . . O d f S z k 4 3 9 g B.1XwXwXiXiXwXwXwXwXwXwXwXwX",
"wXwXwXwXwXwXpXpXpXwXsX:X1.5 5 5 > > . . . . . . . . . . . . . . O 4 9 w 4 O   O R q.E.4XdXeXwXwXwXwXwXwXwXwXwXwX",
"wXwXwXwXwXwXpXpXdXdXpX*X1.5 5 < > . . . . > . > . . . . . . . . . O O . O .   O T V.=XdXwXiXwXwXwXwXwXwXwXwXwXwX",
"wXwXwXwXwXwXpXpXpXdXpX*X1.q 5 < , > . > . . . > . . . . . . . . . . . . O 1 O O T J.9XwXwXwXwXwXwXwXwXwXwXwXwXwX",
"wXwXwXwXwXwXpXpXpXdXpX%X*.q y < > , > > > > > > . . . . . . . . . . . > 1 1 O O R J.9XaXeXiXsXuXwXwXwXwXwXwXwXwX",
"wXwXwXwXwXwXwXpXpXeXgX=Xw.8 q < > , > > > > > . . . . > . . . . 1 O 1 1 1 3 O O T I.eXtXwXwXuXwXwXwXwXwXwXwXwXwX",
"pXwXwXwXwXwXwXwXwXwXgXpX~.F 5 5 > > > > > > > . . 5 w 2 . . > > 1 1 3 2 3 3 1 3 $.E.eXwXaXdXpXpXwXwXwXwXwXwXwXwX",
"pXpXwXwXwXwXwXwXdXdXwXpX.XA 5 , , , > > > > . . > w +.5 . . o   1 1 3 3 3 3 1 4 t.`.pXaXtXdXpXsXwXwXwXwXwXwXwXwX",
"pXpXwXwXwXwXwXwXtXwXdXgX}.F 5 , , > > > > > .   X w.!.o.. . . > . 1 1 3 1 1 1 a N.,XdXiXeXtXpXsXwXwXwXwXwXwXwXwX",
"pXpXwXwXwXwXwXwXaXwXwXpX|.A , 5 , > > > > > . . + C.>Xw.  . . . . 1 1 3 3 1 O 9 V.4XwXiXtXaXpXsXpXwXwXwXwXwXwXwX",
"pXpXwXwXwXwXwXwXtXtXdXeX.XH 5 , 5 > > , > . . . % F.2Xl..     . . O 1 1 2 1 O a V.4XwXyXtXtXpXeXpXwXwXwXwXwXwXwX",
"pXpXpXwXwXwXwXwXdXeXsXpX%Xq.5 5 5 > > , > . .   % H.3Xk.X . . . . 1 1 1 3 1 O d C.4XiXeXiXwXdXpXwXwXwXwXwXwXwXwX",
"pXpXpXwXwXwXwXwXiXdXwXpX%XO.2 < , > > > . . . o % F.4X!.2 . . . . 1 3 3 3 O 3 ..H.8XwXiXaXwXeXsXwXwXwXwXwXwXwXwX",
"wXwXpXwXwXwXuXwXwXwXdXwX%X@.5 < 5 2 > > . . .   % C.4X+XF . . . . 1 3 1 1 O 3 *.R.eXwXtXwXdXsXsXwXwXwXwXwXwXwXwX",
"wXwXpXwXwXwXwXwXdXpXwXpX8XP.l q , , 5 > . . . . % C.eX,X@.o . . . 3 3 3 1 O 3 e.{.sXwXtXiXwXuXwXwXwXwXwXwXwXwXwX",
"wXwXpXpXwXwXwXwXwXdXwXwXpX~.H 5 5 , > > > . . . % I.eX2X*.  . .   1 1 1 1 O 9 x.%XdXeXwXiXtXwXuXwXwXwXwXwXwXwXwX",
"wXwXpXpXwXwXwXwXgXwXdXwX4Xb.t t q , > > > > .   % Y.eX2X1.. . . . 1 1 3 3 O 9 x.$XwXiXyXtXtXwXwXwXwXwXwXwXwXwXwX",
"wXwXpXpXwXwXwXwXaXwXdXwXpXE.F , , > > > > > . . % Y.gX,X*.  . . . O 1 3 3 O d x.%XwXiXyXtXwXwXwXwXwXwXwXwXwXwXwX",
"wXwXpXpXwXwXwXwXpXaXdXwXpX*X*.q 5 , > > > > . X 0 Y.eX3Xl.. .   . 1 1 3 1 O z x.*XwXeXiXiXiXwXdXwXwXwXwXwXwXwXwX",
"wXwXpXpXwXwXwXwXaXaXwXiXpX8XF.X.F w > > > > . X e..XpXpX{.f     . O 1 1 1 3 U x.%XpXwXiXeXiXwXwXwXwXwXwXwXwXwXwX",
"wXwXpXpXwXwXwXwXaXwXwXwXwX8XF.l q 5 > > > . . 9 v.4XeXpX*X@.  . . 1 3 1 1 4 S t.+XpXdXwXwXdXpXsXwXwXwXwXwXwXwXwX",
"wXwXpXpXwXwXwXwXaXwXwXdXwX).*., . . > > > o X k.{.eXpXpX8XI.9 . 1 1 2 6 6 d S =.).sXpXwXdXdXpXwXwXwXwXwXwXwXwXwX",
"wXwXpXpXwXwXwXwXdXaXwXwX2XB.e , . . > > > . + F.pXeXpXpXsX{.f . 1 2 3 4 6 p d T F.8XdXwXwXwXpXsXwXwXwXwXwXwXwXwX",
"wXwXpXpXwXwXwXwXaXaXwXsX%X@.X , . 2 > > > . % C.8XpXpXpXpX(.f   2 1 1 6 d w @ 9 =.%XpXdXwXwXpXpXwXwXwXwXwXwXwXwX",
"wXwXpXpXwXwXwXwXpXpXaXsX*Xw.8 , > > . > . . % B.4XdXwXsX8XV.X , 2 . O 6 d d 4 g 1.+XwXtXwXdXpXpXwXwXwXwXwXwXwXwX",
"wXwXpXwXwXwXwXwXdXpXsXwX4XB.w 2 2 . . > . . + b.=XwXgXpX4Xr.o > . . . 1 4 w l O.k.+XdXtXwXdXpXpXwXwXwXwXwXwXwXwX",
"wXwXpXwXwXwXuXwXdXpXwXpX9XC.w , > . > > . . % v.:XwXpXpX8Xr.o . . . O 3 3 w f L r. XwXiXtXwXwXwXwXwXwXwXwXwXwXwX",
"wXwXwXwXwXwXwXwXwXwXwXdX2Xk.q 5 > . . > . o % z.=XdXpXpX3Xt.. > . O O O O 4 4 g e.{.wXtXwXwXdXwXwXwXwXwXwXwXwXwX",
"pXwXwXwXuXuXwXwXtXwXiXuX,Xe.5 5 > > > . . . + z.=XpXpXwX3Xl.o > . 2 1 1 3 3 @ 9 1.`.dXwXaXwXpXpXwXwXwXwXwXwXwXwX",
"pXwXwXwXuXuXpXpXwXwXwXuX2Xe.2 > > > . . . . % v.=XwXwXdXeXC., , . . 1 1 1 O @ a 2.`.dXwXtXaXpXpXwXwXwXwXwXwXwXwX",
"pXwXwXwXuXuXpXpXaXtXwXsX2Xe.2 > , . > . . . % v.=XpXsXwXeX!.8 > . 1 3 O 1 O @ L e.`.dXtXwXdXdXdXwXwXwXwXwXwXwXwX",
"pXwXwXwXuXuXpXpXtXaXwXpX:Xw.2 > > > .   . . % v.%XpXdXwXsX.XF o . 1 O O 1 O 4 T e.{.wXiXtXaXpXwXwXwXwXwXwXwXwXwX",
"pXwXwXwXuXuXpXpXwXaXwXpX:Xq.2 > > >   . . . M V.:XdXwXuXsX,X:.. . O O 1 O O U =.e.XXuXiXtXwXpXpXwXwXwXwXwXwXwXwX",
"pXwXwXwXuXuXpXpXtXaXpXpX:Xq.2 > > . > X . + Q !.eXdXwXwXwX3Xl.. O 1 1 1 O O S =.t.*XdXwXaXwXpXdXwXwXwXwXwXwXwXwX",
"wXwXwXwXuXuXpXpXtXaXdXsX:Xq.2 > > > , o X A r.XXpXwXwXiXuX9Xv.. 2 1 1 O O O 4 O.b.,XwXwXiXdXwXpXwXwXwXwXwXwXwXwX",
"wXwXwXwXuXuXpXpXwXaXpXpX>X:.2 > , .   . % 2.E.4XdXwXiXiXuXeXB.. . . 2 1 1 3 z e.R.3XwXiXeXiXsXpXwXwXwXwXwXwXwXwX",
"wXwXwXwXuXuXpXpXtXaXwXwX&X*.2 > ,   .   + r.=XsXdXwXiXwXwXpXH.X . 1 1 1 1 O L x.XXeXwXtXiXwXsXpXwXwXwXwXwXwXwXwX",
"wXwXwXwXuXuXpXpXtXwXdXgX&X*.2 > o . .   s z.,XwXpXwXwXiXwXgX).A   1 1 1 1 O d c.+XuXwXtXtXwXdXpXwXwXwXwXwXwXwXwX",
"pXwXwXwXuXuXpXpXtXwXwXwX&X@.2 > > >   . P I.eXsXaXaXiXiXwXpX*XY   . 1 O 1 O d z.+XsXwXtXtXwXdXpXwXwXwXwXwXwXwXwX",
"pXwXwXwXuXuXpXpXaXwXwXpX$Xo.2 > > .   . ~ ~.wXwXpXwXiXtXdXpX>Xo.. . 1 1 O O A x.+XuXtXtXtXwXdXpXwXwXwXwXwXwXwXwX",
"pXwXwXwXuXuXpXpXdXwXdXsX.XG , . . . >   ~ ].eXuXdXdXaXwXdXpX+XH . . . 1 . O S z.+XuXtXtXiXwXdXpXwXwXwXwXwXwXwXwX",
"pXwXwXwXuXuXpXpXtXaXwXpX.XF . . . . . . P ].uXwXpXpXwXwXpXpX.XA   .   . .   S x.+XwXwXtXiXwXdXpXwXwXwXwXwXwXwXwX",
"pXwXwXwXuXuXpXpXeXdXwXsX|.F . . . . . 9 ) [.uXuXpXpXaXdXdXpX.Xf   > . . . . S b.+XwXtXtXtXwXdXpXwXwXwXwXwXwXwXwX",
"pXwXwXwXwXwXpXtXdXwXwXwX^.9 > . .   . 9 z.1XuXiXdXwXdXwXpXsX.XA . , 2 3 3 + S b.#XdXtXtXtXtXdXpXwXwXwXwXwXwXwXwX",
"wXwXtXtXtXtXtXtXaXwXpX:Xl.2 . . . O   & L.jXuXeXiXtXpXpXgXpX.XJ . . > 2 2 9 S b.%XiXtXyXtXaXpXpXwXwXwXwXwXwXwXwX",
"wXwXtXtXtXtXtXtXdXsXsX%X*.2 2 . .   9 ~ I.eXuXiXtXtXpXpXsXpX+XJ   . . . 3 2 g C.;XiXeXiXaXwXwXdXwXwXwXwXwXwXwXwX",
"uXuXpXpXtXtXtXtXwXsXsXoX@.9 w . . . 9 2.(.eXeXeXwXwXpXpXpXsX=X@.  > > 1 . 2 T b.=XwXwXiXwXtXdXdXwXwXwXwXwXwXwXwX",
"uXuXpXpXtXtXtXtXdXeXgX).f 2 2 2 . . 9 l.:XeXiXiXwXdXdXhXpXsX8Xl.. 2 6 2 6 9 A N.=XsXwXtXeXwXdXuXwXwXwXwXwXwXwXwX",
"pXpXpXpXtXtXtXtXwXpX1Xx.O   . . 2 w G J.9XwXdXiXwXwXwXdXpXdX8XV.. 2 5 q w w o.N.:XdXeXwXiXiXwXuXwXwXwXwXwXwXwXwX",
"pXpXpXpXtXtXtXwXdXdX.XQ O 4 3 . . 2 S T.9XsXpXwXwXdXgXdXwXpXdX'.e   + . . O a z.$XwXwXwXwXiXwXuXwXwXwXwXwXwXwXwX",
"wXwXwXwXwXwXpXpXpXpX(.n 9 f 3 1 . . 9 F.9XsXpXwXdXwXwXwXdXdXwX+XD   . O O   O 1.#XpXdXwXeXwXwXeXwXwXwXwXwXwXwXwX",
"wXwXwXwXwXwXpXpXsX%Xe.A l 4 4 O     + H.pXpXwXdXtXwXdXwXwXwXwX4XY.A O + + O   1.,XsXwXwXwXiXuXuXwXwXwXwXwXwXwXwX",
"tXtXtXtXwXwXpXpXpX/.G z 3 O 1 1   $ 9 P.pXdXwXiXwXwXwXwXwXwXtXpX4X^.H.Y.q.0 9 1.:XpXdXwXdXwXdXwXwXwXwXwXwXwXwXwX",
"tXtXtXtXwXwXpXsX+X2.f d 9 d 4 O # & s I.eXwXwXwXwXwXwXwXwXwXtXwXiXeXwX9XoX(.^.^.2XwXwXwXdXwXdXwXwXwXwXwXwXwXwXwX",
"tXtXtXtXwXwXpXsX^.s + @ 4 3 O d M C 4.E.6XdXwXiXwXwXwXwXwXwXaXtXiXwXwXuXpXpXpXpXeXiXwXwXtXwXpXwXwXwXwXwXwXwXwXwX",
"tXtXtXtXwXwXuXpX^.9       $ + Q J.~. X5XeXuXwXwXwXwXwXwXwXwXaXtXwXuXiXwXdXwXpXdXdXwXwXwXtXaXaXaXwXwXwXwXwXwXwXwX",
"pXwXwXwXwXwXwXpX/.n 0 0 * s P t.OXuXeXeXdXwXwXdXwXwXwXwXwXwXwXwXiXiXwXeXwXaXiXwXdXwXiXwXwXdXaXaXwXwXwXwXwXwXwXwX",
"pXpXwXwXwXwXwXwX1X^.^.^.^.^._.OX5XuXuXuXwXdXaXwXwXwXwXwXwXwXwXwXwXeXtXgXtXwXwXdXdXdXiXwXwXwXpXpXwXwXwXwXwXwXwXwX",
"pXpXuXuXwXwXtXtXaXwXgXaXwXdXeXeXuXwXwXwXaXdXpXaXwXwXuXuXwXwXwXwXdXwXaXaXaXaXdXwXwXuXwXuXiXwXaXaXwXwXwXwXwXwXwXwX",
"pXpXpXuXwXwXtXtXwXaXeXiXtXeXyXiXeXuXwXiXaXeXaXaXwXwXuXuXwXwXwXwXdXpXaXeXaXpXdXwXuXuXwXuXdXwXpXaXwXwXwXwXwXwXwXwX"
};
