/* XPM */
static char *_ae87b0306a241e5863bd30c1c27543a[] = {
/* columns rows colors chars-per-pixel */
"56 128 227 2 ",
"   c #040B16",
".  c #0A0B16",
"X  c #01071A",
"o  c #040C1D",
"O  c #090D1B",
"+  c #020716",
"@  c #04121D",
"#  c #0A141D",
"$  c #07181E",
"%  c #0C1B1E",
"&  c #061315",
"*  c #131B1D",
"=  c #14161B",
"-  c #100E1B",
";  c #231C1D",
":  c #13231F",
">  c #28221D",
",  c #050D22",
"<  c #090E23",
"1  c #090E29",
"2  c #051422",
"3  c #0B1424",
"4  c #071922",
"5  c #0B1B24",
"6  c #0C132A",
"7  c #0C1C2A",
"8  c #06172C",
"9  c #111424",
"0  c #121C25",
"q  c #1A1B24",
"w  c #12162C",
"e  c #121D2B",
"r  c #1A1F2B",
"t  c #1A1723",
"y  c #0C1D31",
"u  c #121E31",
"i  c #131730",
"p  c #221D24",
"a  c #0E2124",
"s  c #0E212B",
"d  c #132225",
"f  c #1A2424",
"g  c #14222C",
"h  c #1B242C",
"j  c #16282F",
"k  c #1C2A2D",
"l  c #1D2C25",
"z  c #0E2132",
"x  c #142232",
"c  c #1B2433",
"v  c #1C2A33",
"b  c #1E2539",
"n  c #1D2C3A",
"m  c #162837",
"M  c #1D3039",
"N  c #242426",
"B  c #22242B",
"V  c #212B2D",
"C  c #2B2628",
"Z  c #362C25",
"A  c #27322B",
"S  c #38332E",
"D  c #212533",
"F  c #222C34",
"G  c #2A2C33",
"H  c #232C3B",
"J  c #2B2F3B",
"K  c #212639",
"L  c #332B33",
"P  c #243135",
"I  c #2A3335",
"U  c #2D3934",
"Y  c #25323C",
"T  c #2B333C",
"R  c #2E393C",
"E  c #343234",
"W  c #3C3A34",
"Q  c #323C3C",
"!  c #3C3D3A",
"~  c #363638",
"^  c #42382B",
"/  c #443C33",
"(  c #443B37",
")  c #39433C",
"_  c #43453B",
"`  c #4B443B",
"'  c #484737",
"]  c #52473B",
"[  c #263342",
"{  c #2C3542",
"}  c #2E3A42",
"|  c #2E3648",
" . c #2A3946",
".. c #313642",
"X. c #333C43",
"o. c #3A3D44",
"O. c #343B4A",
"+. c #393D4A",
"@. c #333F50",
"#. c #2A2F41",
"$. c #1D2E40",
"%. c #443F42",
"&. c #354143",
"*. c #3B4443",
"=. c #3D4844",
"-. c #3C444B",
";. c #3E494A",
":. c #37404C",
">. c #3C4151",
",. c #344553",
"<. c #2E4149",
"1. c #434244",
"2. c #434A44",
"3. c #43454C",
"4. c #434B4C",
"5. c #4A4846",
"6. c #554B45",
"7. c #495249",
"8. c #5C544C",
"9. c #5D5A4D",
"0. c #575346",
"q. c #434653",
"w. c #434953",
"e. c #4B4E55",
"r. c #4A4D59",
"t. c #464B5A",
"y. c #4C535C",
"u. c #4C5453",
"i. c #53555C",
"p. c #535A5C",
"a. c #565953",
"s. c #584F51",
"d. c #635B4C",
"f. c #6B5C4C",
"g. c #645446",
"h. c #645A54",
"j. c #705F4D",
"k. c #5A6259",
"l. c #6B624D",
"z. c #71644D",
"x. c #6B6254",
"c. c #6B645A",
"v. c #666356",
"b. c #756857",
"n. c #7A715F",
"m. c #545A62",
"M. c #575B65",
"N. c #4E5462",
"B. c #5D6468",
"V. c #5E6470",
"C. c #656A69",
"Z. c #78736C",
"A. c #646B73",
"S. c #676B76",
"D. c #6E737A",
"F. c #6D7473",
"G. c #71757B",
"H. c #787B78",
"J. c #7B6C64",
"K. c #867C6D",
"L. c #857B74",
"P. c #8D8374",
"I. c #948875",
"U. c #8E836E",
"Y. c #797D85",
"T. c #7D8288",
"R. c #868789",
"E. c #898C94",
"W. c #929395",
"Q. c #93959B",
"!. c #989A9D",
"~. c #8C9295",
"^. c #999DA5",
"/. c #9BA2A6",
"(. c #A3A8AD",
"). c #A5AAB2",
"_. c #AAACB4",
"`. c #AEB3B8",
"'. c #B3BABD",
"]. c #B4B9BA",
"[. c #B8BDC5",
"{. c #BCC1C5",
"}. c #BDC2C9",
"|. c #C2C5CC",
" X c None",
".X c None",
"XX c None",
"oX c None",
"OX c None",
"+X c None",
"@X c None",
"#X c None",
"$X c None",
"%X c None",
"&X c None",
"*X c None",
"=X c None",
"-X c None",
";X c None",
":X c None",
">X c None",
",X c None",
"<X c None",
"1X c None",
"2X c None",
"3X c None",
"4X c None",
"5X c None",
"6X c None",
"7X c None",
"8X c None",
"9X c None",
"0X c None",
"qX c None",
"wX c None",
"eX c None",
"rX c None",
"tX c None",
"yX c None",
"uX c None",
"iX c None",
"pX c None",
"aX c None",
"sX c None",
"dX c None",
"fX c None",
"gX c None",
/* pixels */
"eXeXeXeXeXeXeXeXeXeXeXeXeXeXeXtXeXsXuXuX:XR.p.u.e.e.y.M.(.2XyXtXtXeXyXeXdXeXuXuXuXuXeXeXeXeXeXeXeXeXeXeXeXeXeXeX",
"eXeXeXeXeXeXeXeXeXeXeXeXeXeXeXeXdXeXuX2XR.1._ ! ! ~ X.q.M.!.2X8XyXeXyXyXeXdXfXuXuXuXeXeXeXeXeXeXeXeXeXeXeXeXeXeX",
"eXeXeXeXeXeXeXeXeXeXeXeXeXeXeXeXeXyX8X!.s.8.x.x.9.` %.3.e.C.W.2XtXdXeXeXdXeXeXdXeXeXeXeXeXeXeXeXeXeXeXeXeXeXeXeX",
"eXeXeXeXeXeXeXeXeXeXeXeXeXeXeXeXrXrX6XZ.8.J.K.U.n.c.5.( 3.e.i.Q.2XeXrXdXeXeXdXeXeXeXeXeXeXeXeXeXeXeXeXeXeXeXeXeX",
"eXeXeXeXeXeXeXeXeXeXeXeXeXeXeXeXrXyX6XL.b.n.I.U.I.K.6.5.5.1.3.i.!.2XdXeXeXeXeXdXeXeXeXeXeXeXuXuXeXeXeXeXeXeXeXeX",
"eXeXeXeXeXeXeXeXeXeXeXeXeXeXeXrXrXrX7XP.b.b.U.I.I.K.] W ! %.1.3.i.`.qXdXdXeXdXdXeXeXeXeXeXeXuXuXeXeXeXeXeXeXeXeX",
"eXeXeXeXeXeXeXeXeXeXeXeXeXeXeXrXrXrX=XL.l.b.K.U.P.K.d.' W ! ! 3.M._.iXuXdXeXeXeXeXeXeXeXeXeXuXuXeXeXeXeXeXeXeXeX",
"eXeXeXeXeXeXeXeXeXeXeXeXeXeXeXrXrX7XR.c.x.l.x.x.x.Z.x.d.` W 1.1.o.E.9XsXuXeXyXeXeXeXeXeXeXeXuXuXeXeXeXeXeXeXeXeX",
"eXeXeXeXeXeXeXeXeXeXeXeXeXeXeXrXaX6XZ.h.d.^ Z Z ^ 0.l.l.8.` ` 5.o.E.9XuXdXdXeXyXeXeXeXeXeXeXuXuXeXeXeXeXeXeXeXeX",
"eXeXeXeXeXeXeXeXeXeXeXeXeXeXeXeXeX5XL.6.c.] Z Z ] f.l.z.b.0.x.8.C._.9XsXeXeXyXeXeXeXeXeXeXeXuXuXeXeXeXeXeXeXeXeX",
"eXeXeXeXeXeXeXeXeXeXeXeXeXeXeXeXdXeX%XZ.K.K.] ] g.j.z.z.z.b.b.` ~ G.2XsXeXdXeXdXeXeXeXeXeXeXuXuXeXeXeXeXeXeXeXeX",
"eXeXeXeXeXeXeXeXeXeXeXeXeXeXeXeXuXfX7XL.L.I.b.f.f.j.b.z.l.x.d.` S H.4XeXeXeXdXeXeXeXeXeXeXeXuXuXeXeXeXeXeXeXeXeX",
"eXeXeXeXeXeXeXeXeXeXeXeXeXeXeXeXuXuX5XR.L.L.J.g.f.z.f.f.f.g./ d.C.].eXtXrXdXeXdXeXeXeXeXeXeXeXeXeXeXeXeXeXeXeXeX",
"eXeXeXeXeXeXeXeXeXeXeXeXeXeXeXeXuXdXrX*X8.( ] ` 0.d.f.f.f.0./ v.Z.!.6XeXdXeXeXeXeXeXeXeXeXeXeXeXeXeXeXeXeXeXeXeX",
"eXeXeXeXeXeXeXeXeXeXeXeXeXeXeXeXuXaXeX;Xs.E Z S ^ 0.] 8.d.( ^ c.h.1.R.;XeXdXfXuXuXuXeXeXeXeXeXeXeXeXeXeXeXeXeXeX",
"eXeXeXeXeXeXeXeXeXeXeXeXeXeXeXeXuXaXdX&Xi.p C S W W _ ` ( Z / 8.a.A *.F.%XuXsXuXtXeXeXeXeXeXeXeXeXeXeXeXeXeXeXeX",
"eXeXrXrXrXrXeXeXtXyXeXtXtXeXuXuXsXqX+XS.G p N L E ~ ~ ~ C Z / 0.u.N U =.R.+XwXsXtXeXdXeXsXdXeXdXeXeXeXeXrXrXeXeX",
"eXeXrXrXrXrXeXeXtXeXtXtXeXsXdXsXwX@Xy.q 9 q p N E E L L C Z ` d.7.f U =.T m.}.<X8XtXeXfXuXdXdXuXeXeXeXeXrXrXeXeX",
"eXeXrXrXrXrXeXeXtXsXsXtXsXqX3X3X$XA.5 0 # = q N C L C C N ( d.9.! : U ) I X.u.C.].6XeXsXdXeXuXsXeXeXeXeXrXrXeXeX",
"eXeXrXrXrXrXeXeXeXtXeXsX%XT.C.M.y.v 5 5 #   # q p ; ; > Z 6.g.8.W : U Q V ;.=.) 7.H.*X3XuXtXeXtXeXeXeXeXrXrXeXeX",
"tXtXeXeXrXrXrXeXsXsXsX<XY.3.T Y H c 5 g # o   - t p ; ( 8.8.8.! E Q Q U V *.4.2.2._ u.F.*XqXsXtXtXtXeXeXrXrXeXeX",
"tXtXeXeXrXrXrXuXdXiX<XE.o.T Y } [ m 3 v 0 @ @ o t q E _ 6.6.E = = Q Q Q V R 4.7.7.2.4.*.p.W.%XtXtXtXeXeXrXrXeXeX",
"tXtXeXeXrXrXaXuXuX<XQ.-.} +.} O.[ n v j s @ 2 @ 2 3 h V B f * # f *.Q X.k F ;.4.7.7.=.4.*.4.E.gXtXtXeXeXrXrXrXrX",
"tXtXeXeXrXrXaXuX9XY.-.T } } H | [ m j 5 d g 5 2 7 7 j g j 0 5 g k &.-.*.V k T ;.=.Q Q &.4.X.u.+XtXtXeXeXrXrXrXrX",
"uXuXeXdXdXaXeXaX:Xi.D F F m m { n g 5 * k F h 2 2 y n n n 7 2 e h F R *.X.k V &.=.V f P T Q =.F.].gXtXtXeXeXrXrX",
"uXsXdXeXeXdXaXqXE.T h g x g x { n e 0 X.4.-.R 5 s 7 z m m 7 @ 5 # 0 V X.:.F V X.) f 0 h d X.;.Q C.6XeXtXdXeXrXaX",
"sXtXeXdXdXuXiX#XM.Y c 7 e e g [ v s 0 X.-.4.&.j s z z y 7 7 5 # # @ % f H F F &.&.f 0 v e h T Q p..XeXyXeXeXaXaX",
"tXtXeXdXeXuX4XD.X.Y H e x x x [ M v h k k R R v s 7 y y 7 7 T P v 5 & 0 c c F X.X.g g Y g e P &.*.F.-XtXtXeXrXeX",
"eXdXeXeXuXuXoXr.{ | [ e 7 e c { { H H h 0 F Q Y x z 7 z 7 5 R F v 5 & h Y F v X.&.5 e H g e h T =.7.|.tXtXdXeXaX",
"eXdXeXdXuX4XD.} { $.m e u e x [ H H Y F 0 0 F g 7 x z 7 7 0 T % 5 $ # h Y F v X.R d 7 x e g g I =.2.R.5XeXeXeXaX",
"eXdXdXdXeX@Xy.Y H x 7 7 e 7 e { c H Y H e g v 7 z z x s 7 5 v a 5 5 % d h F h F F 5 5 m 7 g j P Q ) 4.*XsXeXaXeX",
"eXeXeXeX4XG.} { x u 7 3 7 e x [ e F H F c H x 7 y z m z s 4 j v v 5 % % 5 v v k j 5 5 x 7 g g h I ) ) ].eXtXeXeX",
"uXeXdXdX3XM.Y m u 7 8 , 2 5 e Y g F F F h Y m 7 x m M m s 5 g v v % : % 5 v g g g @ 3 g u e g j P *.*.k.*XtXtXtX",
"dXdXeXeX>XB.H x z 7 8 , o o 3 c e F h h h X.H 7 $.,.<.,. .j j v v % a a 5 v g g 0 @ @ 5 7 e g g F ;.=.) *XtXeXsX",
"eXuXuX5XY.-.F x 7 7 3 , , , 2 7 7 n x g g &.Y v [ @.m ,. .5 x v v 5 5 5 5 v g 5 0 @ o @ 2 e c v R -.*.=..XtXdXeX",
"dXtXfX>Xi.{ [ e 7 8 3 , o , 2 2 7 n g s v &.v g H | H O.Y c x x m 5 5 5 5 v g 5 5 @ o o 2 g Y X.&.*.*.*. XsXuXsX",
"eXuXiX+Xr.{ m e 2 3 3 , o , , , 2 m 5 g Y <.d 4 7 y u x 7 2 2 7 7 5 5 5 5 v e @ 3 , o o o 3 j F F T I X.).iXuXuX",
"dXuX0XD.H | H 7 5 3 o < , , o , 2 7 5 g M P 5 5 7 x y z s 2 2 5 7 5 5 % $ g 5 o o o o o , o o % 5 k Y T m.oXiXsX",
"eXuXOXt.H K H { { c 6 < , , , 2 2 3 2 5 k d @ 5 x z z z s 4   5 7 5 % % & 5 $ o o o < o o o @ # # g h H H m.#XiX",
"eX>XB...| O.| +.+.} K e 3 , , , , 2 # 5 f % % h n H H n d %   5 5 5 % % & $ @ o 3 , 5 5 # 0 v F v 5 g c c J {.sX",
"eX#Xw.} | O.@.O.c ..| K u 3 2 , , < o # f B 4.C.A.A.A.p.Q f & % 5 5 d d d % $ @ r v c f 0 P P T v H H F c H [.sX",
"eX#Xq.Y { | | F H O.O.| H e 3 2 < o O . f 2.H.R.T.W.E.T.k.) * d h Y } R R k 0 h F v F T P T F v Y  .H n c F }.iX",
"eX>XM.F H b b H | O.{ F v v c 0 =   & = * 7.H.R.E.W.!.R.F.a.=.l * f I Q -.&.F Y H v F X.X.X.P c v n Y m h -.|.sX",
"eXiX Xw.F F F b | | F c v O.X.T A A S ! W a.C.R.Q.!.Q.E.k.a.) l * N k F *.&.T Y v g h H T T n g g x x e X.`.9XsX",
"aXaX9XQ.} v F K #.K c e F +...Q k.c.6._ _ u.k.C.R.W.W.H.k.a.2.A A a.5.I Q Q Y Y F e e x v c x x x x e j y.:XiXsX",
"aXuXuX>XV.X.H K K c e e v } G ~ c.b.9._ ) 2.p.B.C.C.C.v.0.' _ ) 9.Z.u.N B I v F Y v g e g g x x u e v w.{.qXfXeX",
"eXuXuXiX#X^.#.b b u 7 g c T D ~ d.] / S W Q =.u.k.k.k.9.' ] l.v.c.s.~ q D Y h v F v g 5 4 7 x x x x X.[.sXsXeXdX",
"aXeXsXtX9XY.+...b 6 2 e c T h E 8.6.S S A U U ) 7.7.' 0.d.b.b.` ( W G 9 c { c j v v 7 7 5 7 7 x x H y.:XtXtXsXeX",
"eXyXdXsXiX%X+X}.B.h e e c H e G ( 6.s.W f A Q =.=.2._ ' ` / f.j.h.( B 0 c Y g 7 s g 7 7 3 5 5 5 *.`.#XqXdXeXdXeX",
"tXtXeXuXfXeXdXiX#XY.V.{ c e e D C L C = k P k U A ) 2.> > Z ` 6.%.L q 3 e m 7 7 5 5 5 7 5 3 4 d /.eXdXeXeXeXdXdX",
"eXeXeXuXdXeXsXtXiX4X@X>.5 3 3 # q p p q 0 d d d : A l U 5.5.` C C p t 3 e x 3 4 5 4 5 5 5 5 4 h '.sXsXtXdXdXeXdX",
"eXeXdXdXdXeXeXeXsXiX>X>.e < o < O O t q # 0 d d : : : f q N p N = - o 3 7 7 2 7 5 3 5 3 3 3 $ g '.tXtXtXeXdXeXeX",
"sXuXuXuXeXeXtXyXdXiX>Xq.e < < , o O # 9 3 5 5 d a a a * * = t . .   o , 8 8 2 o o o o o @ @ @ h ].tXeXtXdXdXdXdX",
"uXuXuXdXeXyXtXtXeXfX>Xq.w 6 6 < o o   O o @ o # % % $ & O . O O O o o , , o o 2 o o o o @ # & d ^.tXtXeXdXeXeXdX",
"uXdXuXdXeXrXeXeXrXuX<Xq.w 6 6 , o o o o o o o     @ @ o o O X o o o , o o o o o o o o o 3 5 $ d T.5XfXeXeXdXdXeX",
"eXdXuXdXeXyXyXrXrXdX<X+.9 e 6 6 3 3 o o o o o @ @ @ @ o @ o o o 3 3 2 o o 2 o o o o o # 5 5 4 d `.sXeXtXdXeXeXdX",
"eXeXeXeXeXeXrXrXrXfX>Xe.D h e 7 5 5 $ o @ 2 g x c v x v g 7 3 @ @ 5 5 5 o @ o o o 3 @ 5 5 5 5 k }.sXeXeXdXeXdXeX",
"eXeXeXeXeXeXrXrXeXuXiX X`.V.F 5 d d % 5 4 4 n [ c v m H H v 7 7 4 5 5 5 @ 3 2 2 @ 5 x g 5 j 5 g |.dXdXeXdXeXeXeX",
"eXeXeXeXtXuXuXuXaXaXuXuX<XA.F d v k 5 j g 2 m n K K c F v g 5 5 7 5 5 5 @ 5 5 5 5 5 v g a g 5 } +XeXdXeXeXdXdXdX",
"eXeXeXeXtXuXuXuXuXfXeXsX<XC.Y F V k 0 v g @ , , < < , @   o @ 5 7 5 5 5 @ 5 7 7 7 5 v j a d v /.5XeXeXdXeXeXeXeX",
"rXrXeXeXtXuXuXuXfXaXeXeX<Xp.F T T I F F 7 o o o , < 3 o o o @ 5 7 7 5 5 @ 5 s s 7 7 v d % % I XXfXeXeXdXeXeXeXeX",
"rXrXeXeXtXtXuXuXuXeXeXtX<X-.F } } Q } F 3 o o , o 3 3 o o o o 5 7 s e d 5 4 g z 7 7 a d % % T.9XuXeXeXeXdXdXeXdX",
"aXrXeXeXtXtXsXuXuXdXyXtX<X-.c v Y T Y c @ o o o o 3 2 o o o , 7 7 s j v v 7 x s 7 2 $ a % Q |.uXeXdXeXeXdXeXeXeX",
"aXrXeXeXtXtXtXtXdXeXeXeX>Xw.e u g j c e o o o o , 2 2 2 o o 2 7 x g g Y P 7 g g 7 5 5 # k ).qXeXeXeXeXeXeXeXdXeX",
"aXeXeXeXeXeXeXeXeXeXsXiX>XO., w u x u 8 o o o o o 2 2 o o o o 2 s g d Y M 5 s s 4 5 h T p.#XtXdXeXeXeXeXeXeXeXeX",
"uXuXeXeXeXeXrXrXeXeXtXsX@X} < 2 y 7 7 < o o o o o o , o o o o @ g g a P v a s 5 5 g T.XX$XqXeXeXeXeXeXeXeXeXeXeX",
"uXuXeXeXeXeXaXrXeXeXuXqXQ.h 3 1 8 2 2 , o o o o o o o o o o o o 5 g j Y j 5 7 a $ T @XwXsXuXdXeXeXeXeXeXeXeXeXeX",
"uXuXeXeXeXeXaXaXeXeXuX<Xi.5 6 6 1 , , , o , o o o o o o o o o o @ g h v v g g 5 % Q $XiXiXfXeXyXeXeXeXeXeXeXeXeX",
"uXuXeXeXeXeXuXuXuXdXuX>X+.9 6 6 2 , , , o o o o o o o o o o o o o g v F F c 7 5 F y.1XsXiXfXyXeXeXeXeXeXeXeXeXeX",
"uXuXeXeXeXeXuXuXuXdXuX3Xr.9 w 1 < , , , o o o o o o o o o o o o @ 5 5 5 5 @ o 0 ~.<XqXuXuXuXrXrXrXeXeXeXeXeXeXeX",
"uXuXeXeXeXeXuXuXuXuXuX3Xy.3 6 6 < o , , , , o , o o o o o o o o o o @ @ @ o o 0 ).wXsXuXuXeXyXeXrXeXeXeXeXeXeXeX",
"uXeXeXeXeXeXuXuXuXuXfX3Xr.9 6 1 < o o , , , , , o o o o o o o o o o o o @ 2 @ 0 ).iXsXsXuXdXrXrXeXeXeXeXeXeXeXeX",
"eXeXeXeXeXeXeXeXeXdXuX3Xr.w w 6 , < , , , , o o o o o o o o , o o o @ o 2 2 @ e _.sXuXdXuXeXyXrXeXeXeXeXeXeXeXeX",
"eXeXeXeXeXeXeXeXdXeXuX4XM.w i 6 , < , , , , , o o o o o o o o o 2 2 2 2 2 2 2 0 ).iXtXdXuXrXyXeXeXeXeXeXeXeXeXeX",
"eXeXeXeXeXeXeXeXeXeXdXiXOXJ w 1 , , , , , , o o o c A.r + o , o 2 2 2 2 2 2 2 g `.tXtXdXuXeXyXeXeXeXeXeXeXeXeXeX",
"eXeXeXeXeXeXeXeXeXdXeXsX:XO.6 , < , , , , o o o o t.[.}   < o o o 2 2 2 2 2 2 v {.tXeXyXdXuXeXeXeXeXeXeXeXeXeXeX",
"uXeXeXeXeXeXeXeXeXdXtXuX:X..< 6 < < < < , o o   t ^.,XX.  o o o @ 2 3 2 2 2 2 F  XsXeXeXdXuXeXtXeXeXeXeXeXeXeXeX",
"uXuXuXeXeXeXeXeXeXdXtXdX#XO.9 < 6 < < < , o o + r |.3XO.  o o o , 2 2 2 2 2 @ v  XtXtXeXuXuXsXtXeXeXeXeXeXeXeXeX",
"uXuXuXuXeXeXuXuXdXeXeXdX>Xq.< 6 6 < < < , o o   h |.3X+.  o o o , @ 2 2 2 2 @ F  XeXtXeXaXdXsXuXeXeXeXeXeXeXeXeX",
"uXuXuXuXeXeXeXeXeXeXdXuX9XE.c 1 6 < < 1 , o o + r OX3X3.O o o , o 2 2 2 2 2 3 T +XtXeXeXaXuXuXuXeXeXeXeXeXeXeXeX",
"uXuXuXuXtXtXeXeXdXuXsXuX3Xm.9 6 3 < < < , , o   h |.9XM.O o o , , 2 2 2 2 @ e T.4XeXyXeXeXdXuXdXeXeXeXeXeXeXeXeX",
"uXuXuXuXtXtXeXeXuXaXuXuX3Xm.9 1 < , 1 < , , o   h OX9XD.3 X , o o 2 2 2 2 @ g /.qXtXsXeXdXeXeXaXeXeXeXeXeXeXeXeX",
"eXeXuXuXtXtXeXeXuXuXeXfXiX|.O.6 < < 6 , , , o   h |.iX|.F o , o o 2 2 2 2 @ h [.iXtXeXtXdXeXuXaXeXeXeXeXeXeXeXeX",
"eXeXuXuXtXtXeXeXuXdXdXdXuX#X+.9 3 < 1 < < o o   h OXiX$XT   o o , 2 2 2 2 2 v XXsXeXeXtXdXeXaXaXeXeXeXeXeXeXeXeX",
"eXeXuXuXeXeXeXeXaXuXdXeXuX_...w w 6 , 1 < o o   B  XfX#XT   , o o 2 2 2 2 # F oXsXeXtXtXeXeXaXaXeXeXeXeXeXeXeXeX",
"eXeXuXuXeXeXeXeXdXrXeXeXfX#X+.3 < < < < , o o   B oXuX$XJ o o o o 2 2 2 2 $ F oXiXsXdXtXeXeXrXuXeXeXeXeXeXeXeXeX",
"eXeXuXuXeXeXeXeXeXrXeXeXsX4XA.D w , < , o , o   o.#XuX<Xe.O o o o 2 2 2 2 $ T +XuXdXdXeXeXeXrXeXeXeXeXeXeXeXeXeX",
"eXeXuXuXeXeXeXeXaXrXeXeXsXuX,X_.t.u , , , o   t _.iXdXuX[.D X o o 2 2 2 $ 3 -.#XuXeXeXeXyXyXrXaXeXeXeXeXeXeXeXeX",
"eXeXuXuXeXeXeXeXaXaXeXyXtXsX,XM.c 3 , < o o O .. XuXaXiX>Xw.O o o 2 2 5 4 5 X.oXuXdXeXeXtXeXrXrXeXeXeXeXeXeXeXeX",
"eXeXuXuXeXeXeXeXaXrXdXeXtX3XY.e o , , o , o r ).9XsXuXfXiX}.J o o 3 2 5 7 0 +.oXuXeXeXyXtXeXrXrXeXeXeXeXeXeXeXeX",
"eXeXuXuXeXeXeXeXdXeXeXyXtX`...o o , o o , o w |.sXdXeXfXiX>XO., 3 3 3 5 g 0 F '.iXdXeXeXtXtXaXeXeXeXeXeXeXeXeXeX",
"eXeXuXuXeXeXeXeXaXeXeXsX5XD.3 < < , o , , , h |.eXeXfXuXuX:X{ o 3 3 2 7 g 5 3 e.#XuXdXeXtXtXeXaXeXeXeXeXeXeXeXeX",
"eXeXuXuXeXeXeXeXiXeXeXeXqXY.w < , , o o o o h OXfXdXeXuX0XD.9 , o o o 7 e g 0 X.oXeXdXeXsXtXeXaXeXeXeXeXeXeXeXeX",
"eXeXuXeXeXeXeXeXdXuXsXtXsX`.F 3 < , o o , o r OXsXeXfXsX3Xo.  , o o 2 2 5 g h M.:XdXuXeXtXsXaXuXeXeXeXeXeXeXeXeX",
"eXeXuXeXeXeXeXeXdXeXsXsXiX[.K 1 , o o o o o h |.uXeXuXsX2X-.  o o o @ 2 3 e r -.&XuXuXdXtXeXaXaXeXeXeXeXeXeXeXeX",
"eXeXeXeXeXeXeXeXeXeXuXuXiX^.b 3 , , o o , + h |.sXuXuXuX2Xo.  o o @ @ 2 2 5 0 T oXuXuXeXsXsXuXaXeXeXeXeXeXeXeXeX",
"uXeXtXtXtXtXeXeXrXeXeXsXqXT.e 3 , , o o o   h |.iXuXuXeX3X3.  o o @ 3 2 $ 5 3 F |.uXuXtXtXtXdXuXeXeXeXeXeXeXeXeX",
"uXeXtXtXtXtXuXuXaXrXeXtXqXY.9 , 3 , o , o   h |.aXuXuXeX5XA.O o o @ @ 2 4 $ o F  XtXuXtXsXeXeXuXeXeXeXeXeXeXeXeX",
"uXeXeXeXtXtXuXuXaXrXeXuX9XD.3 , , o , o o   r |.iXaXaXeXqXT.9 o o o 2 2 @ $ # X.oXuXdXeXeXdXuXaXeXeXeXeXeXeXeXeX",
"uXeXeXeXtXtXuXuXaXeXeXsX9XS.3 , , , , X   O h  XiXaXeXeXuX[.K o o 3 2 @ @ $ 0 p.$XeXdXeXeXdXaXuXeXeXeXeXeXeXeXeX",
"uXeXeXeXtXtXuXuXaXaXeXsX0XV.3 3 , X , o o . 3.#XiXuXuXdXuX#XJ o o 2 @ @ @ @ } '.iXdXeXeXeXeXuXaXeXeXeXeXeXeXeXeX",
"uXeXeXeXtXtXuXuXaXrXeXuX0XM.3 , o , X o   h ^.9XuXdXdXeXtX3Xq.o o 2 2 2 2 $ } [.sXdXdXyXeXeXaXaXeXeXeXeXeXeXeXeX",
"eXeXeXeXtXtXuXuXaXaXeXuX3Xm.3 , , o <   9 Y.>XfXaXeXeXdXtX9Xq.  o 2 2 @ @ $ 0 D.4XeXdXyXyXeXrXeXeXeXeXeXeXeXeXeX",
"eXeXeXeXtXtXuXuXeXaXeXuX0XN.3 < , o o   r [.uXuXaXaXyXeXdX4Xe.  o o 2 2 @ $ T '.tXdXeXeXyXeXeXaXeXeXeXeXeXeXeXeX",
"eXeXeXeXtXtXuXuXeXaXeXsX3XN.3 , , o o o h |.uXtXrXaXrXeXdX4XM.o o @ 2 2 @ $ X.@XuXeXeXeXeXeXeXeXeXeXeXeXeXeXeXeX",
"eXeXeXeXtXtXuXuXrXaXeXsX3Xy.3 < o o   + 3.$XfXtXaXrXyXeXeXsX'.h o @ 2 2 2 @ Y XXuXeXeXeXeXeXeXeXeXeXeXeXeXeXeXeX",
"aXrXeXeXtXtXuXuXrXeXeXuX3Xy.3 , o o o O Y.qXsXeXaXeXeXeXdXsXoXK o , 2 2 2 @ Y XXuXeXeXeXeXeXeXuXeXeXeXeXeXeXeXeX",
"aXrXeXeXtXtXuXuXaXrXeXsX3Xt.3 , o o o O ~.sXtXtXeXdXrXyXeXsX[.D o o 2 @ 2 @ T +XuXeXeXeXeXeXuXuXeXeXeXeXeXeXeXeX",
"aXrXeXeXeXeXuXuXrXrXeXuX>X>.< , o o o # E.sXeXdXaXrXrXeXrX<XN.O   o o @ @ @ T oXuXrXrXrXeXeXuXuXeXeXeXeXeXeXeXeX",
"aXrXeXeXeXeXuXuXrXeXeXsX>X-.o o o o o # Q.tXsXtXaXaXeXeXdX#XJ X o o o o o   T oXuXrXrXrXeXeXuXuXeXeXeXeXeXeXeXeX",
"aXrXeXeXeXeXuXuXdXrXyXdX>X+.o o o o   F [.sXsXeXaXeXdXdXuX$XJ O o o o o o o ..@XuXrXrXrXeXeXuXuXeXeXeXeXeXeXeXeX",
"aXeXeXeXeXeXeXeXeXeXeXtX@XT o o o o   Y $XtXsXeXaXaXeXdXeX$XT   o < 3 3 2 3 ..@XuXaXrXrXrXeXuXuXeXeXeXeXeXeXeXeX",
"eXeXeXtXtXtXeXeXeXeXdX9XT.r , , o o O R #XtXeXaXaXeXyXyXeX$XT   o < 2 3 3 0 X.+XuXaXrXrXrXrXuXuXeXeXeXeXeXeXeXeX",
"eXeXeXtXtXtXeXeXaXaXuX3Xm.5 , , , o 0 G.2XtXdXuXaXdXeXeXsX$XT   o o 2 o 3 # X.+XuXuXrXrXrXrXuXuXeXeXeXeXeXeXeXeX",
"rXeXeXeXeXeXeXeXaXdXuX>Xr.0 e , o o F {.sXtXaXuXuXrXeXeXsX4XG.9 o o o o o 3 w.@XsXuXrXrXrXrXeXtXeXeXeXeXeXeXeXeX",
"rXrXeXeXeXeXeXeXeXdXuX#X..# , 2 , o F +XtXtXdXaXdXeXdXtXtXfXoX{ o 6 6 7 e 0 T +XsXuXrXrXrXeXtXtXeXeXeXeXeXeXeXeX",
"rXrXrXrXeXeXeXeXdXeXiX/.f   @ o 3 0 -.$XsXsXuXeXeXeXeXyXdXuX3Xq.o 3 6 e 5 g -.oXsXuXrXrXeXeXtXtXeXeXeXeXeXeXeXeX",
"rXrXrXrXeXeXeXeXeXsX>Xe.# 5 3 o o 3 -.+XtXeXdXfXuXdXeXyXeXeXsX).w X 3 o o o F  XsXtXeXrXeXeXtXtXeXeXeXeXeXeXeXeX",
"rXrXrXrXeXeXuXuXuXsX XY h g 3 2 o   Y oXsXsXuXuXfXeXeXeXeXdXuX#X..o o o #   f |.sXtXeXeXeXeXtXtXeXeXeXeXeXeXeXeX",
"rXrXrXrXeXeXuXuXsX4XA.F h 5 5 2 o o F oXiXsXuXuXuXeXdXeXyXeXuX9X'.w.r f = . * ].uXtXeXeXeXeXeXeXeXeXeXeXeXeXeXeX",
"eXeXeXeXeXeXuXuXsX+X-.h 5 @ 5 2 o   T +XsXsXdXeXeXeXeXeXeXeXuXuXiX+X}.[.i.G Q {.uXeXrXrXrXrXaXuXeXeXeXeXeXeXeXeX",
"eXeXeXeXeXeXuXsX4XD.v e 0 e e @ 0 # *.+XuXeXdXeXeXeXeXeXeXeXeXuXuXsXuXsX<X+X&XqXeXeXrXrXrXrXaXaXeXeXeXeXeXeXeXeX",
"tXtXeXeXeXeXuXsX3X4.# # # # # T -.F.(.5XsXeXeXeXeXeXeXeXeXeXrXeXeXtXeXuXdXeXeXeXeXeXeXeXrXrXaXaXeXeXeXeXeXeXeXeX",
"tXtXeXeXeXeXeXuX>XX.        D _.$XqXtXuXeXeXeXeXeXeXeXeXeXeXrXrXeXeXdXdXeXdXeXdXeXeXeXeXrXrXaXaXeXeXeXeXeXeXeXeX",
"tXtXeXeXrXeXeXuX3XB.F G G *.^.0XsXeXdXdXeXeXyXyXeXeXuXuXeXeXrXrXtXeXeXdXrXrXdXeXtXtXtXtXeXeXaXaXeXeXeXeXeXeXeXeX",
"uXtXeXeXrXrXrXeXtX>X#X+X#X#XuXeXuXtXdXeXaXrXeXeXeXeXuXuXeXeXrXrXeXeXeXdXaXeXdXeXtXtXtXtXeXeXaXaXeXeXeXeXeXeXeXeX",
"uXuXeXrXrXrXrXeXdXuXuXuXdXeXeXdXyXdXaXeXyXrXeXyXeXeXuXuXuXeXeXeXdXeXdXuXeXdXuXdXtXtXtXtXtXtXeXeXeXeXeXeXeXeXeXeX",
"uXuXaXrXrXrXrXrXuXeXsXdXeXyXrXrXeXeXrXaXeXyXyXeXeXeXuXuXuXeXeXeXeXeXdXuXdXuXuXuXtXtXtXtXtXtXeXeXeXeXeXeXeXeXeXeX"
};
